<svg xmlns="http://www.w3.org/2000/svg" version="1.1" xmlns:xlink="http://www.w3.org/1999/xlink" xmlns:svgjs="http://svgjs.dev/svgjs" width="1000" height="191" viewBox="0 0 1000 191"><g transform="matrix(1,0,0,1,-0.6060604950392872,0.30903408390037157)"><svg viewBox="0 0 396 76" data-background-color="#ffffff" preserveAspectRatio="xMidYMid meet" height="191" width="1000" xmlns="http://www.w3.org/2000/svg" xmlns:xlink="http://www.w3.org/1999/xlink"><g id="tight-bounds" transform="matrix(1,0,0,1,0.24000004396441454,-0.12296503496503419)"><svg viewBox="0 0 395.52 76.24593006993007" height="76.24593006993007" width="395.52"><g><svg viewBox="0 0 395.52 76.24593006993007" height="76.24593006993007" width="395.52"><g><svg viewBox="0 0 395.52 76.24593006993007" height="76.24593006993007" width="395.52"><g id="textblocktransform"><svg viewBox="0 0 395.52 76.24593006993007" height="76.24593006993007" width="395.52" id="textblock"><g><svg viewBox="0 0 395.52 76.24593006993007" height="76.24593006993007" width="395.52"><g transform="matrix(1,0,0,1,0,0)"><svg width="395.52" viewBox="2.950000047683716 -40.29999923706055 214.49000549316406 41.349998474121094" height="76.24593006993007" data-palette-color="#000000"><path d="M40.75-13.5L40.75-8.75 42.1-5.75 32.9-0.1Q30.45 0.55 28.2 0.78 25.95 1 23.35 1L23.35 1Q17.35 1 12.7-1.55 8.05-4.1 5.5-8.58 2.95-13.05 2.95-18.75L2.95-18.75Q2.95-24.6 6.75-29.58 10.55-34.55 16.23-37.43 21.9-40.3 27-40.3L27-40.3Q30.1-40.3 34.3-39.55 38.5-38.8 40.45-37.95L40.45-37.95 40.45-26.05 35.75-26.05Q31.35-34.55 24.1-34.55L24.1-34.55Q20.95-34.55 18.38-32.8 15.8-31.05 14.3-28 12.8-24.95 12.8-21.15L12.8-21.15Q12.8-16.7 14.28-12.98 15.75-9.25 18.75-7.03 21.75-4.8 26.15-4.8L26.15-4.8Q26.35-4.8 28-4.8 29.65-4.8 31.65-5.1L31.65-5.1 31.65-15.1 23.6-17.05 25.25-20.3 45.45-20.3 45.45-17.5 40.75-13.5ZM70.3-8.25Q70.3-9.75 69.12-11.1 67.95-12.45 66.15-13.6 64.35-14.75 61.35-16.4L61.35-16.4Q57.65-18.45 55.32-20 53-21.55 51.4-23.6 49.8-25.65 49.8-28.1L49.8-28.1Q49.8-30.6 52.1-33.48 54.4-36.35 57.72-38.33 61.05-40.3 63.85-40.3L63.85-40.3Q67.2-40.3 71.7-39.55 76.2-38.8 78.3-37.95L78.3-37.95 78.3-27 73.6-27Q71.5-31.05 68.97-33.3 66.45-35.55 63.65-35.55L63.65-35.55Q61.65-35.55 60.5-34.27 59.35-33 59.35-31.05L59.35-31.05Q59.35-29.45 60.57-28.03 61.8-26.6 63.62-25.43 65.45-24.25 68.55-22.55L68.55-22.55Q72.2-20.55 74.45-19.05 76.7-17.55 78.25-15.55 79.8-13.55 79.8-11.15L79.8-11.15Q79.8-8.65 77.35-5.78 74.9-2.9 71.37-0.93 67.85 1.05 64.95 1.05L64.95 1.05Q61.45 1.05 56.57 0.3 51.7-0.45 49.55-1.3L49.55-1.3 49.55-12.25 54.25-12.25Q56.45-8.2 59.35-5.95 62.25-3.7 65.2-3.7L65.2-3.7Q67.5-3.7 68.9-5.03 70.3-6.35 70.3-8.25L70.3-8.25ZM129.75-3.3L128.15-0.05 110.45-0.05 110.45-2.85 115.15-6.8 115.15-17.7 98.2-17.7 98.2-4.9 103.75-3.3 102.15-0.05 84.45-0.05 84.45-2.85 89.15-6.8 89.15-34.5 83.6-36.1 85.25-39.35 102.95-39.35 102.95-36.55 98.2-32.55 98.2-21.55 115.15-21.55 115.15-34.5 109.6-36.1 111.25-39.35 128.95-39.35 128.95-36.55 124.2-32.55 124.2-4.85 129.75-3.3ZM157.09-40.3Q162.84-40.3 167.24-37.75 171.64-35.2 174.04-30.7 176.44-26.2 176.44-20.5L176.44-20.5Q176.44-14.65 172.79-9.7 169.14-4.75 163.77-1.88 158.39 1 153.54 1L153.54 1Q147.79 1 143.42-1.53 139.04-4.05 136.62-8.55 134.19-13.05 134.19-18.75L134.19-18.75Q134.19-24.6 137.82-29.58 141.44-34.55 146.84-37.43 152.24-40.3 157.09-40.3L157.09-40.3ZM154.19-34.55Q151.39-34.55 149.07-32.8 146.74-31.05 145.39-28 144.04-24.95 144.04-21.15L144.04-21.15Q144.04-16.65 145.42-12.93 146.79-9.2 149.57-6.98 152.34-4.75 156.44-4.75L156.44-4.75Q159.19-4.75 161.52-6.5 163.84-8.25 165.19-11.3 166.54-14.35 166.54-18.15L166.54-18.15Q166.54-22.7 165.19-26.4 163.84-30.1 161.07-32.33 158.29-34.55 154.19-34.55L154.19-34.55ZM201.79-19.55Q204.44-19.55 205.99-21.4 207.54-23.25 207.54-26.5L207.54-26.5Q207.54-30.45 205.64-32.93 203.74-35.4 200.04-35.4L200.04-35.4Q197.59-35.4 195.44-33.9L195.44-33.9 195.44-5.15 204.14-3.25 202.49 0 181.69 0 181.69-2.8 186.39-6.5 186.39-34.35 180.84-36.05 182.49-39.3 190.79-39.3Q195.24-39.3 199.54-39.6L199.54-39.6Q202.74-39.8 204.24-39.8L204.24-39.8Q208.14-39.8 211.14-38.27 214.14-36.75 215.79-34.1 217.44-31.45 217.44-28.2L217.44-28.2Q217.44-24.6 214.69-21.45 211.94-18.3 207.74-16.5 203.54-14.7 199.54-14.9L199.54-14.9 197.34-16.25 198.99-19.5 201.79-19.5 201.79-19.55Z" opacity="1" transform="matrix(1,0,0,1,0,0)" fill="#000000" class="wordmark-text-0" data-fill-palette-color="primary" id="text-0"></path></svg></g></svg></g></svg></g></svg></g></svg></g><defs></defs></svg><rect width="395.52" height="76.24593006993007" fill="none" stroke="none" visibility="hidden"></rect></g></svg></g></svg>